<svg xmlns="http://www.w3.org/2000/svg" width="280" height="120" viewBox="0 0 280 120">
    <defs>
        <linearGradient id="nauzme4wrc" x1="0%" x2="78.594%" y1="50%" y2="50%">
            <stop offset="0%" stop-color="#25BFEC"/>
            <stop offset="49.956%" stop-color="#245E8F"/>
            <stop offset="100%" stop-color="#232659"/>
        </linearGradient>
        <linearGradient id="3ooyixab0d" x1="0%" x2="78.663%" y1="50%" y2="50%">
            <stop offset="0%" stop-color="#D4088C"/>
            <stop offset="49.874%" stop-color="#641B6C"/>
            <stop offset="100%" stop-color="#232659"/>
        </linearGradient>
        <linearGradient id="xdcd3ou40e" x1="0%" x2="78.594%" y1="50%" y2="50%">
            <stop offset="0%" stop-color="#25BFEC"/>
            <stop offset="49.956%" stop-color="#245E8F"/>
            <stop offset="100%" stop-color="#232659"/>
        </linearGradient>
        <linearGradient id="e93ebh5hsf" x1="0%" x2="78.663%" y1="50%" y2="50%">
            <stop offset="0%" stop-color="#D4088C"/>
            <stop offset="49.874%" stop-color="#641B6C"/>
            <stop offset="100%" stop-color="#232659"/>
        </linearGradient>
        <radialGradient id="w7f4wlj37a" cx="50%" cy="50%" r="200.149%" fx="50%" fy="50%" gradientTransform="matrix(.24981 0 0 .26235 .375 .369)">
            <stop offset="0%" stop-color="#D4088C"/>
            <stop offset="45.236%" stop-color="#D4088C" stop-opacity=".249"/>
            <stop offset="84.535%" stop-color="#D4088C" stop-opacity="0"/>
            <stop offset="100%" stop-color="#D4088C" stop-opacity="0"/>
        </radialGradient>
        <radialGradient id="fejq1lphab" cx="50%" cy="50%" r="200.149%" fx="50%" fy="50%" gradientTransform="matrix(.24981 0 0 .26235 .375 .369)">
            <stop offset="0%" stop-color="#25BFEC"/>
            <stop offset="45.236%" stop-color="#25BFEC" stop-opacity=".25"/>
            <stop offset="84.535%" stop-color="#25BFEC" stop-opacity="0"/>
            <stop offset="100%" stop-color="#25BFEC" stop-opacity="0"/>
        </radialGradient>
    </defs>
    <g fill="none" fill-rule="evenodd">
        <path fill="#FFF" fill-rule="nonzero" d="M36.241 112.552v-10.045c0-1.026.129-1.901.385-2.625.257-.723.625-1.318 1.104-1.785.478-.466 1.039-.805 1.681-1.015.642-.21 1.349-.315 2.12-.315.746 0 1.447.111 2.1.333.655.221 1.22.571 1.7 1.05.478.478.858 1.096 1.138 1.855.28.758.42 1.674.42 2.747v9.8h2.312v-9.8c0-1.073.14-1.989.42-2.747.28-.759.666-1.377 1.156-1.855.49-.479 1.062-.829 1.716-1.05.654-.222 1.355-.333 2.102-.333 1.541 0 2.802.432 3.783 1.295.98.864 1.47 2.31 1.47 4.34v10.15h2.312v-11.235c0-1.096-.186-2.053-.56-2.87-.374-.816-.887-1.499-1.541-2.047-.654-.549-1.424-.957-2.312-1.225-.887-.269-1.845-.403-2.872-.403-1.448 0-2.761.315-3.94.945-1.18.63-2.108 1.552-2.785 2.765-.677-1.26-1.611-2.193-2.802-2.8-1.19-.606-2.534-.91-4.028-.91-1.05 0-2.026.14-2.925.42-.899.28-1.681.7-2.346 1.26-.666.56-1.186 1.254-1.56 2.083-.373.828-.56 1.79-.56 2.887v11.13h2.312zm37.688 7.35c1.355 0 2.575-.163 3.66-.49 1.086-.326 2.014-.84 2.785-1.54.77-.7 1.366-1.592 1.786-2.677.42-1.085.63-2.386.63-3.903V95.507c-.093-.046-.239-.099-.437-.157-.198-.059-.403-.088-.613-.088-.444 0-.765.111-.963.333-.199.221-.298.507-.298.857v8.33c0 1.937-.49 3.465-1.471 4.585-.98 1.12-2.487 1.68-4.518 1.68-1.962 0-3.398-.519-4.309-1.557-.91-1.039-1.366-2.491-1.366-4.358v-9.625c-.093-.046-.239-.099-.437-.157-.199-.059-.403-.088-.613-.088-.444 0-.765.111-.964.333-.198.221-.297.507-.297.857v9.17c0 2.287.677 4.095 2.031 5.425 1.355 1.33 3.304 1.995 5.85 1.995 1.47 0 2.75-.274 3.835-.822 1.086-.549 1.85-1.266 2.294-2.153v1.61c0 1.237-.18 2.264-.543 3.08-.362.817-.846 1.459-1.453 1.925-.607.467-1.314.794-2.12.98-.805.187-1.64.28-2.504.28-1.54 0-2.825-.122-3.853-.367-1.027-.245-1.774-.461-2.241-.648l-.666 1.82c.467.187 1.279.426 2.434.718 1.156.291 2.61.437 4.361.437zm33.45-7.35v-10.045c0-1.026.129-1.901.385-2.625.257-.723.625-1.318 1.104-1.785.478-.466 1.039-.805 1.681-1.015.642-.21 1.348-.315 2.12-.315.746 0 1.447.111 2.1.333.654.221 1.22.571 1.7 1.05.478.478.858 1.096 1.138 1.855.28.758.42 1.674.42 2.747v9.8h2.312v-9.8c0-1.073.14-1.989.42-2.747.28-.759.666-1.377 1.156-1.855.49-.479 1.062-.829 1.716-1.05.654-.222 1.355-.333 2.102-.333 1.54 0 2.802.432 3.783 1.295.98.864 1.47 2.31 1.47 4.34v10.15h2.312v-11.235c0-1.096-.186-2.053-.56-2.87-.374-.816-.887-1.499-1.541-2.047-.654-.549-1.425-.957-2.312-1.225-.887-.269-1.845-.403-2.872-.403-1.448 0-2.761.315-3.94.945-1.18.63-2.108 1.552-2.785 2.765-.677-1.26-1.611-2.193-2.802-2.8-1.191-.606-2.534-.91-4.028-.91-1.05 0-2.026.14-2.925.42-.899.28-1.681.7-2.347 1.26-.665.56-1.185 1.254-1.558 2.083-.374.828-.56 1.79-.56 2.887v11.13h2.311zm38.914.49c1.354 0 2.604-.239 3.748-.717 1.144-.479 2.13-1.132 2.96-1.96.829-.829 1.476-1.797 1.944-2.905.467-1.109.7-2.293.7-3.553 0-1.283-.233-2.479-.7-3.587-.468-1.109-1.115-2.077-1.944-2.905-.83-.829-1.816-1.476-2.96-1.943-1.144-.466-2.394-.7-3.748-.7s-2.604.234-3.748.7c-1.144.467-2.13 1.114-2.96 1.943-.828.828-1.476 1.796-1.943 2.905-.467 1.108-.7 2.304-.7 3.587 0 1.26.233 2.444.7 3.553.467 1.108 1.115 2.076 1.944 2.905.829.828 1.815 1.481 2.96 1.96 1.143.478 2.393.717 3.747.717zm0-1.995c-1.027 0-1.961-.186-2.802-.56-.84-.373-1.559-.88-2.154-1.522-.596-.642-1.063-1.4-1.401-2.275-.339-.875-.508-1.803-.508-2.783 0-1.003.163-1.942.49-2.817.327-.875.794-1.64 1.401-2.293.607-.653 1.331-1.16 2.172-1.522.84-.362 1.775-.543 2.802-.543 1.028 0 1.962.181 2.802.543.84.361 1.565.869 2.172 1.522.607.654 1.074 1.418 1.4 2.293.328.875.491 1.814.491 2.817 0 .98-.163 1.908-.49 2.783-.327.875-.794 1.633-1.401 2.275-.607.641-1.331 1.149-2.172 1.522-.84.374-1.774.56-2.802.56zm15.306 1.505v-9.66c0-1.936.48-3.441 1.437-4.515.957-1.073 2.416-1.61 4.378-1.61 1.961 0 3.427.537 4.396 1.61.969 1.074 1.453 2.579 1.453 4.515v9.66h2.312v-10.36c0-1.096-.187-2.1-.56-3.01-.374-.91-.911-1.691-1.612-2.345-.7-.653-1.558-1.16-2.574-1.522-1.016-.362-2.154-.543-3.415-.543-1.261 0-2.394.181-3.398.543-1.004.361-1.856.869-2.557 1.522-.7.654-1.237 1.435-1.61 2.345-.374.91-.561 1.914-.561 3.01v10.36h2.311zm26.935.49c.818 0 1.565-.064 2.242-.192.677-.129 1.284-.286 1.822-.473.537-.186.992-.379 1.366-.577.373-.199.653-.356.84-.473l-1.016-1.68c-.443.257-1.08.554-1.909.893-.828.338-1.838.507-3.03.507-2.03 0-3.665-.49-4.903-1.47-1.238-.98-1.985-2.368-2.242-4.165.678.047 1.326.076 1.944.088.62.011 1.302.017 2.05.017 1.937 0 3.543-.134 4.815-.402 1.273-.269 2.289-.642 3.048-1.12.759-.479 1.296-1.039 1.61-1.68.316-.642.474-1.348.474-2.118 0-.77-.146-1.487-.438-2.152-.292-.665-.73-1.243-1.314-1.733-.583-.49-1.313-.869-2.189-1.137-.875-.269-1.897-.403-3.064-.403-1.378 0-2.645.228-3.8.683-1.157.455-2.155 1.096-2.995 1.925-.841.828-1.495 1.82-1.962 2.975-.467 1.155-.7 2.432-.7 3.832 0 1.447.245 2.719.735 3.815.49 1.097 1.162 2.019 2.014 2.765.852.747 1.845 1.313 2.977 1.698 1.133.385 2.341.577 3.625.577zm-3.187-9.345c-.654 0-1.278-.006-1.874-.017-.595-.012-1.208-.041-1.839-.088.024-.91.193-1.785.508-2.625.315-.84.76-1.586 1.331-2.24.572-.653 1.279-1.172 2.12-1.557.84-.385 1.809-.578 2.906-.578.608 0 1.197.059 1.77.175.571.117 1.085.31 1.54.578.456.268.818.624 1.086 1.067.269.444.403.992.403 1.645 0 .49-.117.957-.35 1.4-.234.444-.648.829-1.244 1.155-.595.327-1.407.59-2.434.788-1.027.198-2.335.297-3.923.297zm20.946 16.205c1.354 0 2.574-.163 3.66-.49 1.086-.326 2.014-.84 2.785-1.54.77-.7 1.366-1.592 1.786-2.677.42-1.085.63-2.386.63-3.903V95.507c-.093-.046-.239-.099-.438-.157-.198-.059-.402-.088-.612-.088-.444 0-.765.111-.964.333-.198.221-.297.507-.297.857v8.33c0 1.937-.49 3.465-1.472 4.585-.98 1.12-2.486 1.68-4.518 1.68-1.961 0-3.397-.519-4.308-1.557-.91-1.039-1.366-2.491-1.366-4.358v-9.625c-.093-.046-.24-.099-.438-.157-.198-.059-.403-.088-.613-.088-.444 0-.765.111-.963.333-.199.221-.298.507-.298.857v9.17c0 2.287.677 4.095 2.032 5.425 1.354 1.33 3.304 1.995 5.85 1.995 1.47 0 2.749-.274 3.834-.822 1.086-.549 1.85-1.266 2.295-2.153v1.61c0 1.237-.181 2.264-.543 3.08-.362.817-.847 1.459-1.454 1.925-.607.467-1.313.794-2.119.98-.806.187-1.64.28-2.504.28-1.541 0-2.826-.122-3.853-.367-1.028-.245-1.775-.461-2.242-.648l-.665 1.82c.467.187 1.278.426 2.434.718 1.156.291 2.61.437 4.36.437zm39.816-6.86c1.355 0 2.604-.239 3.748-.717 1.144-.479 2.125-1.132 2.942-1.96.817-.829 1.454-1.797 1.91-2.905.454-1.109.682-2.293.682-3.553 0-1.283-.228-2.479-.683-3.587-.455-1.109-1.092-2.077-1.909-2.905-.817-.829-1.798-1.476-2.942-1.943-1.144-.466-2.393-.7-3.748-.7-1.4 0-2.697.321-3.888.963-1.19.641-2.16 1.487-2.907 2.537v-11.27c-.093-.046-.24-.099-.438-.157-.198-.059-.403-.088-.613-.088-.443 0-.764.111-.963.333-.198.221-.298.507-.298.857v15.12c0 .56.018 1.056.053 1.488.035.431.076.81.123 1.137.21 1.144.572 2.17 1.085 3.08.514.91 1.156 1.68 1.927 2.31.77.63 1.658 1.114 2.662 1.453 1.004.338 2.09.507 3.257.507zm0-1.995c-1.027 0-1.955-.18-2.784-.542-.83-.362-1.542-.858-2.137-1.488s-1.057-1.382-1.384-2.257c-.326-.875-.49-1.826-.49-2.853 0-1.003.164-1.942.49-2.817.327-.875.789-1.64 1.384-2.293.595-.653 1.308-1.16 2.137-1.522.829-.362 1.757-.543 2.784-.543 1.051 0 1.99.181 2.82.543.829.361 1.54.869 2.136 1.522.596.654 1.051 1.418 1.366 2.293.316.875.473 1.814.473 2.817 0 .98-.157 1.908-.473 2.783-.315.875-.77 1.633-1.366 2.275-.595.641-1.307 1.149-2.136 1.522-.83.374-1.769.56-2.82.56zm21.817 1.995c1.355 0 2.604-.239 3.748-.717 1.144-.479 2.13-1.132 2.96-1.96.829-.829 1.477-1.797 1.944-2.905.467-1.109.7-2.293.7-3.553 0-1.283-.233-2.479-.7-3.587-.467-1.109-1.115-2.077-1.944-2.905-.83-.829-1.816-1.476-2.96-1.943-1.144-.466-2.393-.7-3.748-.7-1.354 0-2.603.234-3.747.7-1.145.467-2.131 1.114-2.96 1.943-.83.828-1.477 1.796-1.944 2.905-.467 1.108-.7 2.304-.7 3.587 0 1.26.233 2.444.7 3.553.467 1.108 1.115 2.076 1.944 2.905.829.828 1.815 1.481 2.96 1.96 1.144.478 2.393.717 3.747.717zm0-1.995c-1.027 0-1.961-.186-2.802-.56-.84-.373-1.558-.88-2.154-1.522-.595-.642-1.062-1.4-1.4-2.275-.34-.875-.509-1.803-.509-2.783 0-1.003.164-1.942.49-2.817.327-.875.795-1.64 1.402-2.293.607-.653 1.33-1.16 2.171-1.522.84-.362 1.775-.543 2.802-.543 1.028 0 1.962.181 2.802.543.841.361 1.565.869 2.172 1.522.607.654 1.074 1.418 1.401 2.293.327.875.49 1.814.49 2.817 0 .98-.163 1.908-.49 2.783-.327.875-.794 1.633-1.401 2.275-.607.641-1.331 1.149-2.172 1.522-.84.374-1.774.56-2.802.56zm13.166 1.505c.537-.746 1.337-1.773 2.4-3.08 1.062-1.306 2.223-2.695 3.484-4.165 1.425 1.564 2.633 2.911 3.626 4.043.992 1.131 1.897 2.199 2.714 3.202h2.732c-.257-.35-.648-.84-1.173-1.47-.526-.63-1.133-1.341-1.822-2.135-.688-.793-1.436-1.645-2.241-2.555-.806-.91-1.617-1.82-2.435-2.73.794-.933 1.57-1.843 2.33-2.73.759-.886 1.447-1.686 2.066-2.397.619-.712 1.139-1.313 1.559-1.803.42-.49.7-.805.84-.945-.093-.093-.256-.204-.49-.332-.233-.129-.514-.193-.84-.193-.397 0-.742.094-1.034.28-.292.187-.601.455-.928.805-.07.094-.251.31-.543.648l-1.103 1.277c-.444.514-.946 1.103-1.506 1.768l-1.752 2.082c-.723-.793-1.418-1.551-2.084-2.275l-1.821-1.977c-.549-.595-1.016-1.097-1.401-1.505-.385-.409-.66-.706-.823-.893-.047-.046-.146-.093-.298-.14-.152-.046-.333-.07-.543-.07-.42 0-.7.105-.84.315-.14.21-.21.42-.21.63 0 .187.052.374.157.56.105.187.24.374.403.56.21.28.525.636.946 1.068.42.431.899.927 1.436 1.487.537.56 1.126 1.173 1.768 1.838.643.665 1.29 1.359 1.944 2.082-.817.98-1.622 1.954-2.416 2.923-.794.968-1.524 1.855-2.19 2.66-.665.805-1.22 1.487-1.663 2.047-.444.56-.724.934-.84 1.12h2.591z" opacity=".9" transform="translate(-22)"/>
        <g opacity=".149">
            <path fill="url(#w7f4wlj37a)" d="M18.32 26.674c24.425 6.101 64.028 6.101 88.454 0 24.426-6.102 24.426-15.996 0-22.098-24.426-6.101-64.029-6.101-88.455 0-24.425 6.102-24.425 15.996 0 22.098z" transform="translate(-22) translate(.734 66.875)"/>
            <g>
                <path fill="url(#w7f4wlj37a)" d="M18.32 26.674c24.425 6.101 64.028 6.101 88.454 0 24.426-6.102 24.426-15.996 0-22.098-24.426-6.101-64.029-6.101-88.455 0-24.425 6.102-24.425 15.996 0 22.098z" transform="translate(-22) translate(.734 66.875) translate(90.901)"/>
                <path fill="url(#fejq1lphab)" d="M40.002 26.674c24.426 6.101 64.028 6.101 88.454 0 24.426-6.102 24.426-15.996 0-22.098-24.426-6.101-64.028-6.101-88.454 0-24.426 6.102-24.426 15.996 0 22.098z" transform="translate(-22) translate(.734 66.875) translate(90.901)"/>
            </g>
            <g>
                <path fill="url(#w7f4wlj37a)" d="M18.32 26.674c24.425 6.101 64.028 6.101 88.454 0 24.426-6.102 24.426-15.996 0-22.098-24.426-6.101-64.029-6.101-88.455 0-24.425 6.102-24.425 15.996 0 22.098z" transform="translate(-22) translate(.734 66.875) translate(186.18)"/>
                <path fill="url(#fejq1lphab)" d="M41.045 26.674c24.426 6.101 64.028 6.101 88.454 0 24.426-6.102 24.426-15.996 0-22.098-24.426-6.101-64.028-6.101-88.454 0-24.426 6.102-24.426 15.996 0 22.098z" transform="translate(-22) translate(.734 66.875) translate(186.18)"/>
            </g>
        </g>
        <g>
            <g>
                <g>
                    <path fill="#0A0B26" d="M58.168.208v57.917H.208V.208h57.96zM46.076 12.292H12.3v33.75h33.775v-33.75z" transform="translate(-22) translate(22) rotate(-45 49.82 20.612)"/>
                    <g>
                        <path fill="url(#nauzme4wrc)" style="mix-blend-mode:lighten" d="M22.955 22.912L81.289 22.912 81.289 35.421 22.955 35.421z" transform="translate(-22) translate(22) rotate(-45 49.82 20.612) rotate(-90 52.122 29.167)"/>
                        <path fill="url(#3ooyixab0d)" style="mix-blend-mode:lighten" d="M-22.912 22.912L35.421 22.912 35.421 35.421 -22.912 35.421z" transform="translate(-22) translate(22) rotate(-45 49.82 20.612) rotate(90 6.255 29.167)"/>
                        <path fill="url(#xdcd3ou40e)" style="mix-blend-mode:lighten" d="M0 0H58.377V12.5H0z" transform="translate(-22) translate(22) rotate(-45 49.82 20.612) rotate(-180 29.188 6.25)"/>
                        <path fill="url(#e93ebh5hsf)" style="mix-blend-mode:lighten" d="M0 45.833H58.377V58.333H0z" transform="translate(-22) translate(22) rotate(-45 49.82 20.612)"/>
                    </g>
                </g>
                <path fill="#D4088C" fill-rule="nonzero" d="M46.238 33.75c-1.131 0-2.129.191-2.995.568-.721.313-1.333.73-1.836 1.248-.506-.519-1.127-.936-1.864-1.25-.884-.375-1.89-.566-3.02-.566-.914 0-1.76.118-2.535.351-.794.239-1.482.599-2.065 1.077-.59.483-1.054 1.077-1.393 1.782-.32.668-.492 1.444-.507 2.331v9.266h5.13v-7.91c0-.76.13-1.323.455-1.656.31-.317.745-.461 1.29-.461.564 0 1.025.181 1.374.56.361.39.517 1.016.53 1.933v7.534h5.13V41.02c0-.873.161-1.525.541-1.928.358-.379.824-.562 1.391-.562.541 0 .971.142 1.273.458.308.322.434.862.445 1.662v7.907h5.13V39.42c0-.94-.172-1.76-.507-2.46-.339-.705-.803-1.3-1.393-1.782-.583-.478-1.271-.838-2.066-1.077-.775-.233-1.611-.351-2.508-.351z" transform="translate(-22) translate(22)"/>
            </g>
            <g>
                <path fill="#0A0B26" d="M23.01.362L38.635 6.99 54.376.636l6.359 15.728 15.626 6.628-6.633 15.615 6.36 15.728-15.74 6.354-6.633 15.616-15.627-6.629-15.74 6.355-6.359-15.728L.362 53.675 6.995 38.06.636 22.332l15.74-6.355L23.009.362zM38.52 20.068l-12.97 5.237-5.468 12.869 5.241 12.961 12.878 5.463 12.971-5.237 5.467-12.868L51.4 25.53 38.52 20.068z" transform="translate(-22) translate(22) translate(104.661 2.917)"/>
                <g>
                    <path fill="url(#nauzme4wrc)" style="mix-blend-mode:lighten" d="M22.955 22.912L81.289 22.912 81.289 35.421 22.955 35.421z" transform="translate(-22) translate(22) translate(104.661 2.917) rotate(23 11.247 56.295) rotate(-90 52.122 29.167)"/>
                    <path fill="url(#3ooyixab0d)" style="mix-blend-mode:lighten" d="M-22.912 22.912L35.421 22.912 35.421 35.421 -22.912 35.421z" transform="translate(-22) translate(22) translate(104.661 2.917) rotate(23 11.247 56.295) rotate(90 6.255 29.167)"/>
                    <path fill="url(#xdcd3ou40e)" style="mix-blend-mode:lighten" d="M0 0H58.377V12.5H0z" transform="translate(-22) translate(22) translate(104.661 2.917) rotate(23 11.247 56.295) rotate(-180 29.188 6.25)"/>
                    <path fill="url(#e93ebh5hsf)" style="mix-blend-mode:lighten" d="M0 45.833H58.377V58.333H0z" transform="translate(-22) translate(22) translate(104.661 2.917) rotate(23 11.247 56.295)"/>
                </g>
                <g>
                    <path fill="url(#nauzme4wrc)" style="mix-blend-mode:lighten" d="M22.955 22.912L81.289 22.912 81.289 35.421 22.955 35.421z" transform="translate(-22) translate(22) translate(104.661 2.917) rotate(-22 57.354 10.153) rotate(-90 52.122 29.167)"/>
                    <path fill="url(#3ooyixab0d)" style="mix-blend-mode:lighten" d="M-22.912 22.912L35.421 22.912 35.421 35.421 -22.912 35.421z" transform="translate(-22) translate(22) translate(104.661 2.917) rotate(-22 57.354 10.153) rotate(90 6.255 29.167)"/>
                    <path fill="url(#xdcd3ou40e)" style="mix-blend-mode:lighten" d="M0 0H58.377V12.5H0z" transform="translate(-22) translate(22) translate(104.661 2.917) rotate(-22 57.354 10.153) rotate(-180 29.188 6.25)"/>
                    <path fill="url(#e93ebh5hsf)" style="mix-blend-mode:lighten" d="M0 45.833H58.377V58.333H0z" transform="translate(-22) translate(22) translate(104.661 2.917) rotate(-22 57.354 10.153)"/>
                </g>
                <path fill="#25BFEC" fill-rule="nonzero" d="M43.319 30.833c-1.13 0-2.129.192-2.995.568-.721.313-1.333.73-1.836 1.248-.506-.518-1.127-.936-1.864-1.25-.884-.375-1.89-.566-3.019-.566-.915 0-1.76.118-2.535.351-.794.24-1.482.6-2.066 1.077-.59.483-1.054 1.077-1.393 1.782-.32.668-.491 1.445-.506 2.331l-.002.128v9.138h5.131v-7.91c0-.76.13-1.323.455-1.655.31-.318.745-.462 1.29-.462.565 0 1.025.182 1.374.56.361.39.518 1.016.53 1.933v7.534h5.13v-7.537c0-.872.162-1.525.541-1.927.358-.38.824-.563 1.391-.563.541 0 .971.142 1.273.458.308.322.434.863.445 1.662v7.907h5.13v-9.137c0-.94-.171-1.76-.507-2.46-.339-.705-.803-1.299-1.393-1.782-.583-.478-1.271-.838-2.065-1.077-.776-.233-1.612-.35-2.51-.35z" transform="translate(-22) translate(22) translate(104.661 2.917)"/>
            </g>
            <g>
                <path fill="#0A0B26" d="M41.28.297l6.93 6.923 9.084-3.668 3.534 8.74h9.433v9.79l9.02 3.827-3.687 8.676 6.67 6.665-6.928 6.923 3.67 9.079-8.746 3.53v9.426h-9.798l-3.828 9.013-8.684-3.683-6.67 6.665-6.928-6.923-9.085 3.668-3.534-8.74h-9.432v-9.791L3.28 56.59l3.686-8.676-6.67-6.665 6.928-6.924-3.67-9.078 8.746-3.53v-9.426h9.798l3.829-9.013L34.61 6.96 41.28.297zm3.436 24.078h-6.718l-6.23 2.515-4.75 4.746-2.625 6.181v6.713l2.517 6.224 4.75 4.748 6.185 2.623h6.719l6.228-2.515 4.751-4.747 2.625-6.18V37.97l-2.516-6.224-4.751-4.747-6.185-2.623z" transform="translate(-22) translate(22) translate(197.439)"/>
                <g>
                    <path fill="url(#nauzme4wrc)" style="mix-blend-mode:lighten" d="M22.955 22.912L81.289 22.912 81.289 35.421 22.955 35.421z" transform="translate(-22) translate(22) translate(197.439) rotate(45 20.649 49.805) rotate(-90 52.122 29.167)"/>
                    <path fill="url(#3ooyixab0d)" style="mix-blend-mode:lighten" d="M-22.912 22.912L35.421 22.912 35.421 35.421 -22.912 35.421z" transform="translate(-22) translate(22) translate(197.439) rotate(45 20.649 49.805) rotate(90 6.255 29.167)"/>
                    <path fill="url(#xdcd3ou40e)" style="mix-blend-mode:lighten" d="M0 0H58.377V12.5H0z" transform="translate(-22) translate(22) translate(197.439) rotate(45 20.649 49.805) rotate(-180 29.188 6.25)"/>
                    <path fill="url(#e93ebh5hsf)" style="mix-blend-mode:lighten" d="M0 45.833H58.377V58.333H0z" transform="translate(-22) translate(22) translate(197.439) rotate(45 20.649 49.805)"/>
                </g>
                <g>
                    <path fill="url(#nauzme4wrc)" style="mix-blend-mode:lighten" d="M22.955 22.912L81.289 22.912 81.289 35.421 22.955 35.421z" transform="translate(-22) translate(22) translate(197.439) translate(12.092 12.083) rotate(-90 52.122 29.167)"/>
                    <path fill="url(#3ooyixab0d)" style="mix-blend-mode:lighten" d="M-22.912 22.912L35.421 22.912 35.421 35.421 -22.912 35.421z" transform="translate(-22) translate(22) translate(197.439) translate(12.092 12.083) rotate(90 6.255 29.167)"/>
                    <path fill="url(#xdcd3ou40e)" style="mix-blend-mode:lighten" d="M0 0H58.377V12.5H0z" transform="translate(-22) translate(22) translate(197.439) translate(12.092 12.083) rotate(-180 29.188 6.25)"/>
                    <path fill="url(#e93ebh5hsf)" style="mix-blend-mode:lighten" d="M0 45.833H58.377V58.333H0z" transform="translate(-22) translate(22) translate(197.439) translate(12.092 12.083)"/>
                </g>
                <g>
                    <path fill="url(#nauzme4wrc)" style="mix-blend-mode:lighten" d="M22.955 22.912L81.289 22.912 81.289 35.421 22.955 35.421z" transform="translate(-22) translate(22) translate(197.439) rotate(23 5.539 64.926) rotate(-90 52.122 29.167)"/>
                    <path fill="url(#3ooyixab0d)" style="mix-blend-mode:lighten" d="M-22.912 22.912L35.421 22.912 35.421 35.421 -22.912 35.421z" transform="translate(-22) translate(22) translate(197.439) rotate(23 5.539 64.926) rotate(90 6.255 29.167)"/>
                    <path fill="url(#xdcd3ou40e)" style="mix-blend-mode:lighten" d="M0 0H58.377V12.5H0z" transform="translate(-22) translate(22) translate(197.439) rotate(23 5.539 64.926) rotate(-180 29.188 6.25)"/>
                    <path fill="url(#e93ebh5hsf)" style="mix-blend-mode:lighten" d="M0 45.833H58.377V58.333H0z" transform="translate(-22) translate(22) translate(197.439) rotate(23 5.539 64.926)"/>
                </g>
                <g>
                    <path fill="url(#nauzme4wrc)" style="mix-blend-mode:lighten" d="M22.955 22.912L81.289 22.912 81.289 35.421 22.955 35.421z" transform="translate(-22) translate(22) translate(197.439) rotate(-22 66.316 4.104) rotate(-90 52.122 29.167)"/>
                    <path fill="url(#3ooyixab0d)" style="mix-blend-mode:lighten" d="M-22.912 22.912L35.421 22.912 35.421 35.421 -22.912 35.421z" transform="translate(-22) translate(22) translate(197.439) rotate(-22 66.316 4.104) rotate(90 6.255 29.167)"/>
                    <path fill="url(#xdcd3ou40e)" style="mix-blend-mode:lighten" d="M0 0H58.377V12.5H0z" transform="translate(-22) translate(22) translate(197.439) rotate(-22 66.316 4.104) rotate(-180 29.188 6.25)"/>
                    <path fill="url(#e93ebh5hsf)" style="mix-blend-mode:lighten" d="M0 45.833H58.377V58.333H0z" transform="translate(-22) translate(22) translate(197.439) rotate(-22 66.316 4.104)"/>
                </g>
                <path fill="#D4088C" fill-rule="nonzero" d="M36.85 30.625c.526 0 .998.065 1.416.191.388.117.636.194.745.23l.285.1v6.185c.25-.166.53-.327.849-.488.699-.354 1.583-.538 2.657-.538.966 0 1.875.185 2.728.554.852.37 1.595.885 2.23 1.548.632.66 1.133 1.455 1.501 2.389.365.925.55 1.958.55 3.099 0 1.126-.2 2.157-.594 3.095-.397.944-.946 1.747-1.645 2.408-.697.658-1.52 1.172-2.472 1.539-.944.365-1.968.548-3.072.548-1.343 0-2.564-.244-3.664-.729-1.116-.491-2.034-1.21-2.753-2.156-.456-.608-.81-1.356-1.057-2.247-.24-.867-.362-1.89-.362-3.071V32.93c.018-.914.307-1.467.793-1.805.469-.326 1.088-.501 1.866-.501zm5.071 10.433c-.382 0-.734.071-1.056.217-.322.146-.603.345-.842.599s-.423.555-.554.902c-.134.354-.2.736-.2 1.146 0 .865.238 1.553.743 2.05.501.493 1.14.733 1.91.733.767 0 1.404-.248 1.904-.756.505-.512.747-1.191.747-2.027 0-.842-.245-1.536-.754-2.075-.498-.528-1.132-.789-1.898-.789z" transform="translate(-22) translate(22) translate(197.439)"/>
            </g>
        </g>
    </g>
</svg>
